<svg xmlns="http://www.w3.org/2000/svg" viewBox="0 0 512 512" style="height: 64px; width: 64px;"><defs><filter id="shadow-1" height="300%" width="300%" x="-100%" y="-100%"><feFlood flood-color="rgba(63, 49, 0, 1)" result="flood"></feFlood><feComposite in="flood" in2="SourceGraphic" operator="atop" result="composite"></feComposite><feGaussianBlur in="composite" stdDeviation="10" result="blur"></feGaussianBlur><feOffset result="offset" dy="0"></feOffset><feComposite in="SourceGraphic" in2="offset" operator="over"></feComposite></filter></defs><rect fill="3E320A" fill-opacity="1" stroke="#ff0000" stroke-opacity="1" stroke-width="6" height="500" width="500" rx="50" ry="50"></rect><g class="" transform="translate(0,0)" style="touch-action: none;"><path d="M494 18.02l-101 .103V119h101zm-119 .12l-238 .247V119h238zm-256 .266L18 18.51V119h101zM18 137v110h229V137zm247 0v110h229V137zM18 265v110h101V265zm119 0v110h238V265zm256 0v110h101V265zM18 393v100.98l229-.236V393zm247 0v100.727l229-.237V393z" fill="#937200" fill-opacity="1" filter="url(#shadow-1)" stroke="#990707" stroke-opacity="1" stroke-width="2"></path></g></svg>