<svg xmlns="http://www.w3.org/2000/svg" viewBox="0 0 512 512" style="height: 64px; width: 64px;"><defs><filter id="shadow-1" height="300%" width="300%" x="-100%" y="-100%"><feFlood flood-color="rgba(255, 255, 255, 1)" result="flood"></feFlood><feComposite in="flood" in2="SourceGraphic" operator="atop" result="composite"></feComposite>0<feOffset result="offset" dy="10"></feOffset><feComposite in2="offset" in="SourceGraphic" operator="over"></feComposite></filter></defs><polygon points="402.95,458.25,256,426.67,109.05,458.25,93.69,308.74,18.24,178.75,155.68,117.93,256,6,356.32,117.93,493.76,178.75,418.31,308.74" fill="#0062ff" fill-opacity="1" stroke="#00d6ff" stroke-opacity="1" stroke-width="6"></polygon><g class="" transform="translate(0,0)" style="touch-action: none;"><path d="M250.882 22.802c-23.366 3.035-44.553 30.444-44.553 65.935 0 19.558 6.771 36.856 16.695 48.815l11.84 14.263-18.217 3.424c-12.9 2.425-22.358 9.24-30.443 20.336-8.085 11.097-14.266 26.558-18.598 44.375-7.843 32.28-9.568 71.693-9.842 106.436h42.868l11.771 157.836c29.894 6.748 61.811 6.51 90.602.025l10.414-157.86h40.816c-.027-35.169-.477-75.126-7.584-107.65-3.918-17.934-9.858-33.372-18.04-44.343-8.185-10.97-18.08-17.745-32.563-19.989l-18.592-2.88 11.736-14.704c9.495-11.897 15.932-28.997 15.932-48.082 0-37.838-23.655-65.844-49.399-65.844z" fill="#e8e8e8" fill-opacity="1" filter="url(#shadow-1)"></path></g></svg>